<svg width="140" height="40" viewBox="0 0 140 40" fill="none" xmlns="http://www.w3.org/2000/svg">
<path d="M51.462 26.1415C50.322 26.1415 49.338 25.9555 48.51 25.5835C47.694 25.1995 47.058 24.6475 46.602 23.9275C46.158 23.1955 45.912 22.3075 45.864 21.2635C45.852 20.7475 45.846 20.2015 45.846 19.6255C45.846 19.0375 45.852 18.4795 45.864 17.9515C45.912 16.9315 46.164 16.0675 46.62 15.3595C47.076 14.6515 47.718 14.1115 48.546 13.7395C49.374 13.3675 50.346 13.1815 51.462 13.1815C52.362 13.1815 53.16 13.2955 53.856 13.5235C54.552 13.7395 55.134 14.0335 55.602 14.4055C56.082 14.7775 56.442 15.1855 56.682 15.6295C56.934 16.0735 57.066 16.5115 57.078 16.9435C57.09 17.0515 57.054 17.1415 56.97 17.2135C56.898 17.2855 56.808 17.3215 56.7 17.3215H54.072C53.94 17.3215 53.838 17.3035 53.766 17.2675C53.706 17.2195 53.652 17.1535 53.604 17.0695C53.52 16.8895 53.394 16.7035 53.226 16.5115C53.07 16.3075 52.848 16.1335 52.56 15.9895C52.284 15.8455 51.918 15.7735 51.462 15.7735C50.778 15.7735 50.238 15.9535 49.842 16.3135C49.458 16.6735 49.248 17.2495 49.212 18.0415C49.176 19.0735 49.176 20.1175 49.212 21.1735C49.248 22.0135 49.47 22.6195 49.878 22.9915C50.286 23.3635 50.826 23.5495 51.498 23.5495C51.954 23.5495 52.356 23.4715 52.704 23.3155C53.064 23.1595 53.346 22.9195 53.55 22.5955C53.754 22.2595 53.856 21.8335 53.856 21.3175V20.9755H52.164C52.032 20.9755 51.918 20.9335 51.822 20.8495C51.738 20.7535 51.696 20.6395 51.696 20.5075V19.1755C51.696 19.0435 51.738 18.9355 51.822 18.8515C51.918 18.7555 52.032 18.7075 52.164 18.7075H56.7C56.832 18.7075 56.94 18.7555 57.024 18.8515C57.108 18.9355 57.15 19.0435 57.15 19.1755V21.2275C57.15 22.2595 56.916 23.1415 56.448 23.8735C55.98 24.6055 55.314 25.1695 54.45 25.5655C53.598 25.9495 52.602 26.1415 51.462 26.1415ZM63.4451 26.1415C62.4371 26.1415 61.5851 25.9795 60.8891 25.6555C60.2051 25.3315 59.6771 24.8695 59.3051 24.2695C58.9451 23.6575 58.7411 22.9315 58.6931 22.0915C58.6811 21.8515 58.6751 21.5815 58.6751 21.2815C58.6751 20.9695 58.6811 20.6995 58.6931 20.4715C58.7411 19.6195 58.9571 18.8935 59.3411 18.2935C59.7251 17.6935 60.2591 17.2315 60.9431 16.9075C61.6391 16.5835 62.4731 16.4215 63.4451 16.4215C64.4291 16.4215 65.2631 16.5835 65.9471 16.9075C66.6431 17.2315 67.1831 17.6935 67.5671 18.2935C67.9511 18.8935 68.1671 19.6195 68.2151 20.4715C68.2271 20.6995 68.2331 20.9695 68.2331 21.2815C68.2331 21.5815 68.2271 21.8515 68.2151 22.0915C68.1671 22.9315 67.9571 23.6575 67.5851 24.2695C67.2251 24.8695 66.6971 25.3315 66.0011 25.6555C65.3171 25.9795 64.4651 26.1415 63.4451 26.1415ZM63.4451 23.9455C63.9851 23.9455 64.3751 23.7835 64.6151 23.4595C64.8671 23.1355 65.0111 22.6495 65.0471 22.0015C65.0591 21.8215 65.0651 21.5815 65.0651 21.2815C65.0651 20.9815 65.0591 20.7415 65.0471 20.5615C65.0111 19.9255 64.8671 19.4455 64.6151 19.1215C64.3751 18.7855 63.9851 18.6175 63.4451 18.6175C62.9171 18.6175 62.5271 18.7855 62.2751 19.1215C62.0231 19.4455 61.8851 19.9255 61.8611 20.5615C61.8491 20.7415 61.8431 20.9815 61.8431 21.2815C61.8431 21.5815 61.8491 21.8215 61.8611 22.0015C61.8851 22.6495 62.0231 23.1355 62.2751 23.4595C62.5271 23.7835 62.9171 23.9455 63.4451 23.9455Z" fill="black"/>
<path d="M75.3674 26.1415C74.2274 26.1415 73.2494 25.9555 72.4334 25.5835C71.6294 25.2115 70.9994 24.6655 70.5434 23.9455C70.0994 23.2255 69.8534 22.3315 69.8054 21.2635C69.7934 20.7715 69.7874 20.2435 69.7874 19.6795C69.7874 19.1155 69.7934 18.5755 69.8054 18.0595C69.8534 17.0155 70.1054 16.1335 70.5614 15.4135C71.0174 14.6815 71.6534 14.1295 72.4694 13.7575C73.2854 13.3735 74.2514 13.1815 75.3674 13.1815C76.1594 13.1815 76.8914 13.2835 77.5634 13.4875C78.2354 13.6795 78.8234 13.9675 79.3274 14.3515C79.8314 14.7235 80.2214 15.1795 80.4974 15.7195C80.7854 16.2475 80.9354 16.8475 80.9474 17.5195C80.9594 17.6275 80.9234 17.7175 80.8394 17.7895C80.7674 17.8615 80.6774 17.8975 80.5694 17.8975H78.1394C77.9834 17.8975 77.8634 17.8675 77.7794 17.8075C77.6954 17.7355 77.6234 17.6095 77.5634 17.4295C77.3954 16.7935 77.1194 16.3615 76.7354 16.1335C76.3634 15.8935 75.9014 15.7735 75.3494 15.7735C74.6894 15.7735 74.1674 15.9595 73.7834 16.3315C73.3994 16.6915 73.1894 17.2975 73.1534 18.1495C73.1174 19.1335 73.1174 20.1415 73.1534 21.1735C73.1894 22.0255 73.3994 22.6375 73.7834 23.0095C74.1674 23.3695 74.6894 23.5495 75.3494 23.5495C75.9014 23.5495 76.3694 23.4295 76.7534 23.1895C77.1374 22.9495 77.4074 22.5175 77.5634 21.8935C77.6114 21.7135 77.6774 21.5935 77.7614 21.5335C77.8574 21.4615 77.9834 21.4255 78.1394 21.4255H80.5694C80.6774 21.4255 80.7674 21.4615 80.8394 21.5335C80.9234 21.6055 80.9594 21.6955 80.9474 21.8035C80.9354 22.4755 80.7854 23.0815 80.4974 23.6215C80.2214 24.1495 79.8314 24.6055 79.3274 24.9895C78.8234 25.3615 78.2354 25.6495 77.5634 25.8535C76.8914 26.0455 76.1594 26.1415 75.3674 26.1415ZM87.0701 26.1415C86.0621 26.1415 85.2101 25.9795 84.5141 25.6555C83.8301 25.3315 83.3021 24.8695 82.9301 24.2695C82.5701 23.6575 82.3661 22.9315 82.3181 22.0915C82.3061 21.8515 82.3001 21.5815 82.3001 21.2815C82.3001 20.9695 82.3061 20.6995 82.3181 20.4715C82.3661 19.6195 82.5821 18.8935 82.9661 18.2935C83.3501 17.6935 83.8841 17.2315 84.5681 16.9075C85.2641 16.5835 86.0981 16.4215 87.0701 16.4215C88.0541 16.4215 88.8881 16.5835 89.5721 16.9075C90.2681 17.2315 90.8081 17.6935 91.1921 18.2935C91.5761 18.8935 91.7921 19.6195 91.8401 20.4715C91.8521 20.6995 91.8581 20.9695 91.8581 21.2815C91.8581 21.5815 91.8521 21.8515 91.8401 22.0915C91.7921 22.9315 91.5821 23.6575 91.2101 24.2695C90.8501 24.8695 90.3221 25.3315 89.6261 25.6555C88.9421 25.9795 88.0901 26.1415 87.0701 26.1415ZM87.0701 23.9455C87.6101 23.9455 88.0001 23.7835 88.2401 23.4595C88.4921 23.1355 88.6361 22.6495 88.6721 22.0015C88.6841 21.8215 88.6901 21.5815 88.6901 21.2815C88.6901 20.9815 88.6841 20.7415 88.6721 20.5615C88.6361 19.9255 88.4921 19.4455 88.2401 19.1215C88.0001 18.7855 87.6101 18.6175 87.0701 18.6175C86.5421 18.6175 86.1521 18.7855 85.9001 19.1215C85.6481 19.4455 85.5101 19.9255 85.4861 20.5615C85.4741 20.7415 85.4681 20.9815 85.4681 21.2815C85.4681 21.5815 85.4741 21.8215 85.4861 22.0015C85.5101 22.6495 85.6481 23.1355 85.9001 23.4595C86.1521 23.7835 86.5421 23.9455 87.0701 23.9455ZM94.0784 25.9615C93.9464 25.9615 93.8384 25.9195 93.7544 25.8355C93.6704 25.7515 93.6284 25.6435 93.6284 25.5115V17.0515C93.6284 16.9315 93.6704 16.8295 93.7544 16.7455C93.8384 16.6495 93.9464 16.6015 94.0784 16.6015H96.1484C96.2804 16.6015 96.3884 16.6495 96.4724 16.7455C96.5564 16.8295 96.5984 16.9315 96.5984 17.0515V17.7715C96.9224 17.3995 97.3064 17.1115 97.7504 16.9075C98.2064 16.7035 98.7164 16.6015 99.2804 16.6015H100.072C100.192 16.6015 100.294 16.6435 100.378 16.7275C100.474 16.8115 100.522 16.9195 100.522 17.0515V18.9055C100.522 19.0255 100.474 19.1335 100.378 19.2295C100.294 19.3135 100.192 19.3555 100.072 19.3555H98.3264C97.8344 19.3555 97.4504 19.4935 97.1744 19.7695C96.9104 20.0335 96.7784 20.4115 96.7784 20.9035V25.5115C96.7784 25.6435 96.7304 25.7515 96.6344 25.8355C96.5504 25.9195 96.4424 25.9615 96.3104 25.9615H94.0784ZM106.16 26.1415C105.152 26.1415 104.3 25.9795 103.604 25.6555C102.92 25.3315 102.392 24.8695 102.02 24.2695C101.66 23.6575 101.456 22.9315 101.408 22.0915C101.396 21.8515 101.39 21.5815 101.39 21.2815C101.39 20.9695 101.396 20.6995 101.408 20.4715C101.456 19.6195 101.672 18.8935 102.056 18.2935C102.44 17.6935 102.974 17.2315 103.658 16.9075C104.354 16.5835 105.188 16.4215 106.16 16.4215C107.144 16.4215 107.978 16.5835 108.662 16.9075C109.358 17.2315 109.898 17.6935 110.282 18.2935C110.666 18.8935 110.882 19.6195 110.93 20.4715C110.942 20.6995 110.948 20.9695 110.948 21.2815C110.948 21.5815 110.942 21.8515 110.93 22.0915C110.882 22.9315 110.672 23.6575 110.3 24.2695C109.94 24.8695 109.412 25.3315 108.716 25.6555C108.032 25.9795 107.18 26.1415 106.16 26.1415ZM106.16 23.9455C106.7 23.9455 107.09 23.7835 107.33 23.4595C107.582 23.1355 107.726 22.6495 107.762 22.0015C107.774 21.8215 107.78 21.5815 107.78 21.2815C107.78 20.9815 107.774 20.7415 107.762 20.5615C107.726 19.9255 107.582 19.4455 107.33 19.1215C107.09 18.7855 106.7 18.6175 106.16 18.6175C105.632 18.6175 105.242 18.7855 104.99 19.1215C104.738 19.4455 104.6 19.9255 104.576 20.5615C104.564 20.7415 104.558 20.9815 104.558 21.2815C104.558 21.5815 104.564 21.8215 104.576 22.0015C104.6 22.6495 104.738 23.1355 104.99 23.4595C105.242 23.7835 105.632 23.9455 106.16 23.9455ZM113.168 25.9615C113.036 25.9615 112.928 25.9195 112.844 25.8355C112.76 25.7515 112.718 25.6435 112.718 25.5115V17.0515C112.718 16.9195 112.76 16.8115 112.844 16.7275C112.928 16.6435 113.036 16.6015 113.168 16.6015H115.238C115.37 16.6015 115.478 16.6435 115.562 16.7275C115.646 16.8115 115.688 16.9195 115.688 17.0515V17.7355C116 17.3635 116.408 17.0515 116.912 16.7995C117.416 16.5475 118.01 16.4215 118.694 16.4215C119.39 16.4215 120.002 16.5775 120.53 16.8895C121.07 17.2015 121.49 17.6635 121.79 18.2755C122.102 18.8755 122.258 19.6135 122.258 20.4895V25.5115C122.258 25.6435 122.21 25.7515 122.114 25.8355C122.03 25.9195 121.928 25.9615 121.808 25.9615H119.54C119.42 25.9615 119.312 25.9195 119.216 25.8355C119.132 25.7515 119.09 25.6435 119.09 25.5115V20.5975C119.09 20.0335 118.952 19.6015 118.676 19.3015C118.412 18.9895 118.016 18.8335 117.488 18.8335C116.996 18.8335 116.6 18.9895 116.3 19.3015C116.012 19.6015 115.868 20.0335 115.868 20.5975V25.5115C115.868 25.6435 115.82 25.7515 115.724 25.8355C115.64 25.9195 115.538 25.9615 115.418 25.9615H113.168ZM127.075 26.1415C126.427 26.1415 125.845 26.0215 125.329 25.7815C124.825 25.5295 124.423 25.1935 124.123 24.7735C123.823 24.3535 123.673 23.8795 123.673 23.3515C123.673 22.4995 124.021 21.8275 124.717 21.3355C125.413 20.8315 126.337 20.4895 127.489 20.3095L129.739 19.9675V19.7155C129.739 19.2835 129.649 18.9535 129.469 18.7255C129.289 18.4975 128.959 18.3835 128.479 18.3835C128.143 18.3835 127.867 18.4495 127.651 18.5815C127.447 18.7135 127.285 18.8935 127.165 19.1215C127.057 19.2775 126.907 19.3555 126.715 19.3555H124.699C124.567 19.3555 124.465 19.3195 124.393 19.2475C124.321 19.1635 124.291 19.0675 124.303 18.9595C124.303 18.7435 124.381 18.4975 124.537 18.2215C124.705 17.9335 124.957 17.6515 125.293 17.3755C125.629 17.0995 126.061 16.8715 126.589 16.6915C127.117 16.5115 127.753 16.4215 128.497 16.4215C129.277 16.4215 129.943 16.5115 130.495 16.6915C131.047 16.8715 131.491 17.1235 131.827 17.4475C132.175 17.7715 132.433 18.1555 132.601 18.5995C132.769 19.0315 132.853 19.5115 132.853 20.0395V25.5115C132.853 25.6435 132.805 25.7515 132.709 25.8355C132.625 25.9195 132.523 25.9615 132.403 25.9615H130.315C130.183 25.9615 130.075 25.9195 129.991 25.8355C129.907 25.7515 129.865 25.6435 129.865 25.5115V24.8815C129.709 25.1095 129.499 25.3195 129.235 25.5115C128.971 25.7035 128.659 25.8535 128.299 25.9615C127.951 26.0815 127.543 26.1415 127.075 26.1415ZM127.921 24.0895C128.269 24.0895 128.581 24.0175 128.857 23.8735C129.145 23.7175 129.367 23.4835 129.523 23.1715C129.691 22.8475 129.775 22.4455 129.775 21.9655V21.7135L128.245 21.9835C127.681 22.0795 127.267 22.2295 127.003 22.4335C126.751 22.6255 126.625 22.8535 126.625 23.1175C126.625 23.3215 126.685 23.4955 126.805 23.6395C126.925 23.7835 127.081 23.8975 127.273 23.9815C127.465 24.0535 127.681 24.0895 127.921 24.0895Z" fill="#EC5863"/>
<path d="M14.2136 4.99714C15.6375 4.49694 17.2032 5.16943 17.7099 6.49854C18.0977 7.51614 17.7519 8.62274 16.9308 9.31061L17.3754 10.5209L18.0822 11.3355C18.2435 11.5219 18.4881 11.6109 18.7332 11.5807C19.394 11.4989 20.0507 11.4955 20.6938 11.5627C20.9117 11.5857 21.1285 11.5136 21.2848 11.3615L21.7942 10.8679L22.1693 9.77381C21.8493 9.33525 21.7407 8.75423 21.9299 8.20199C22.251 7.26585 23.3013 6.78147 24.2359 7.16418C25.0411 7.49346 25.4795 8.38852 25.2444 9.22182C25.095 9.75259 24.7163 10.1503 24.2501 10.3473L23.8348 11.5598L23.9301 12.2276C23.9628 12.4572 24.0994 12.6577 24.2986 12.7778C24.9685 13.1838 25.5839 13.6802 26.1243 14.2542C26.3058 14.4475 26.5766 14.5302 26.8368 14.4776L28.1759 14.2079L29.6884 13.3678C29.6958 12.6238 30.0931 11.9043 30.7928 11.5156C31.8507 10.9283 33.1913 11.3217 33.7559 12.3964C34.2655 13.3659 33.9467 14.5851 33.025 15.1827C32.3052 15.6485 31.4267 15.632 30.7483 15.235L29.2267 16.0795L28.3773 16.9828C28.1494 17.2252 28.0683 17.5677 28.1556 17.8884C28.1561 17.8903 28.1564 17.8915 28.1569 17.8934C28.3062 18.446 28.3969 19.0013 28.4346 19.5518C28.4565 19.8798 28.6424 20.1747 28.9331 20.3313L30.0428 20.9286L32.2417 21.3419C32.6291 21.0042 33.1629 20.8406 33.7085 20.9426C34.6869 21.1268 35.3172 22.0945 35.0671 23.0692C34.8521 23.9039 34.0301 24.46 33.1702 24.3512C32.5837 24.277 32.1101 23.9248 31.8556 23.4512L29.6424 23.0356L28.2776 23.2025C28.026 23.2338 27.8064 23.3913 27.7039 23.6218C27.2961 24.5317 26.7331 25.3686 26.0378 26.0912C25.8651 26.2708 25.8003 26.5277 25.8632 26.7682L26.2033 28.0775L27.0415 29.3865C27.9627 29.248 28.9214 29.6446 29.4537 30.476C30.1693 31.5929 29.8459 33.0727 28.7337 33.7943C27.6221 34.5158 26.1087 34.203 25.3792 33.1C24.8684 32.3279 24.8622 31.3749 25.2754 30.6186L24.3855 29.2293L23.2918 28.3333C23.1299 28.1998 22.9093 28.1646 22.7118 28.235C22.4926 28.3132 22.2691 28.383 22.0405 28.4441C20.7985 28.7759 19.546 28.8193 18.3546 28.6176C18.18 28.5884 18.0014 28.6382 17.8679 28.7537L17.2816 29.2624L16.846 30.3341C17.1414 30.7901 17.2172 31.3758 16.9977 31.9165C16.6246 32.834 15.5488 33.2595 14.6372 32.826C13.8522 32.4527 13.4641 31.5347 13.7452 30.7155C13.9243 30.1938 14.3238 29.8176 14.8005 29.6469L15.283 28.4591L15.1927 27.4162C14.3208 26.8725 13.5448 26.1746 12.9101 25.3496L11.4195 25.4972L10.0248 26.186C10.0344 27.1191 9.55335 28.0073 8.70828 28.4375C7.51416 29.0449 6.04657 28.5087 5.43071 27.2392C4.81502 25.9704 5.28309 24.4492 6.47721 23.8418C7.37082 23.3871 8.41696 23.5728 9.14516 24.2273L10.4605 23.5774L11.3731 22.6003C11.4327 22.5363 11.4547 22.4465 11.4321 22.3625L11.4317 22.3613C11.0087 20.7952 11.0508 19.2118 11.4733 17.7563C11.496 17.6765 11.4789 17.5903 11.425 17.5269L10.6366 16.5892L8.93881 15.7021C8.47144 15.9076 7.91722 15.9073 7.42967 15.6523C6.54888 15.1916 6.23092 14.0849 6.75525 13.2258C7.21557 12.4725 8.19681 12.186 8.99398 12.5716C9.50999 12.821 9.84305 13.2879 9.94173 13.8046L11.6395 14.6916L12.8477 14.8042C12.9316 14.8123 13.0133 14.7769 13.0665 14.7119C13.614 14.0369 14.2659 13.4409 15.0066 12.9519C15.2098 12.8171 15.336 12.5938 15.3391 12.3506L15.3509 11.2574L14.8766 9.96766C13.85 9.89458 12.921 9.27544 12.5524 8.3089C12.0457 6.97979 12.7895 5.49672 14.2136 4.99714Z" fill="#EC5863"/>
<path d="M25.9866 18.4734C25.068 15.0722 21.5509 13.0557 18.131 13.9692C14.7111 14.8828 12.6834 18.3805 13.602 21.7816C14.5206 25.1828 18.0376 27.1993 21.4575 26.2858C24.8775 25.3722 26.9052 21.8745 25.9866 18.4734Z" fill="#F58A97"/>
<path d="M20.9488 24.4104C17.8485 25.2373 14.6694 23.6578 13.4172 20.8228C13.4527 21.1414 13.5129 21.4614 13.599 21.7805C14.5167 25.1823 18.034 27.2002 21.4552 26.2878C24.8765 25.3753 26.9059 21.878 25.9882 18.4762C25.9021 18.1571 25.7932 17.8501 25.6635 17.5566C26.0063 20.6341 24.049 23.5835 20.9488 24.4104Z" fill="#F07281"/>
<path d="M11.3233 33.4953C11.0618 32.5266 10.0602 31.9521 9.08622 32.2122C8.11224 32.4722 7.53467 33.4683 7.79617 34.4369C8.05768 35.4056 9.05924 35.9801 10.0332 35.72C11.0072 35.46 11.5848 34.4639 11.3233 33.4953Z" fill="#EB5569"/>
<path d="M34.1101 27.9375C33.9373 27.2976 33.2758 26.9182 32.6325 27.09C31.9892 27.2617 31.6077 27.9196 31.7804 28.5594C31.9531 29.1993 32.6147 29.5787 33.258 29.4069C33.9013 29.2352 34.2828 28.5773 34.1101 27.9375Z" fill="#EB5569"/>
<path d="M30.8421 6.00145C30.5877 5.05906 29.6133 4.50018 28.6657 4.75316C27.7182 5.00615 27.1563 5.9752 27.4107 6.9176C27.6651 7.86 28.6395 8.41888 29.5871 8.16589C30.5346 7.9129 31.0965 6.94385 30.8421 6.00145Z" fill="#EB5569"/>
<path d="M20.1948 22.047C19.9576 21.1684 19.0492 20.6474 18.1657 20.8832C17.2823 21.1191 16.7584 22.0226 16.9956 22.9012C17.2328 23.7798 18.1413 24.3008 19.0247 24.0649C19.9081 23.8291 20.432 22.9256 20.1948 22.047Z" fill="#EB5569"/>
<path d="M24.3103 19.5814C24.1489 18.9833 23.5305 18.6287 22.9292 18.7892C22.3279 18.9498 21.9713 19.5647 22.1328 20.1627C22.2942 20.7607 22.9126 21.1154 23.5139 20.9549C24.1152 20.7943 24.4718 20.1794 24.3103 19.5814Z" fill="#EB5569"/>
<path d="M19.9574 17.0957C19.8218 16.5935 19.3026 16.2957 18.7977 16.4305C18.2927 16.5654 17.9933 17.0817 18.1289 17.5839C18.2645 18.0861 18.7837 18.3839 19.2886 18.2491C19.7936 18.1143 20.093 17.5979 19.9574 17.0957Z" fill="#EB5569"/>
</svg>
